<svg id="Layer_1" data-name="Layer 1" xmlns="http://www.w3.org/2000/svg" viewBox="0 0 665.51 493.09">
  <defs>
    <style>
      .cls-1 {
        fill: #414042;
      }

      .cls-2 {
        fill: #2690c4;
      }

      .cls-3 {
        fill: #d1d3d4;
      }
    </style>
  </defs>
  <title>marketwatch-logo</title>
  <g>
    <path class="cls-1" d="M135.69,286.7H123L84.23,189.56V286.7H66.06V167.82H94.25l35.16,90.52,35.83-90.52h28V286.7H175.09V189.56Z" transform="translate(-63.49 -53)"/>
    <path class="cls-1" d="M388.2,167.82c18.51,0,41.27,9.68,41.27,34.48,0,19.87-13.93,30.06-28.19,33.45l37.36,50.95H415.88l-35-49.59H370.54V286.7H352.37V167.82Zm-17.66,53.33h13.58c14.95,0,26-5.44,26-18.34,0-11.38-9.17-19-22.76-19H370.54Z" transform="translate(-63.49 -53)"/>
    <path class="cls-1" d="M507.24,215,549,286.7H527.79l-32.95-57.06L477.18,250.7v36H459V167.82h18.17v57.74l47.55-57.74H547Z" transform="translate(-63.49 -53)"/>
    <path class="cls-1" d="M565.31,286.7V167.82h72.52v16H583.49v33.63h54.34v16H583.49v37.36h54.34v16Z" transform="translate(-63.49 -53)"/>
    <path class="cls-1" d="M699,183.78V286.7H680.79V183.78H651.24v-16h77.27v16Z" transform="translate(-63.49 -53)"/>
  </g>
  <g>
    <path class="cls-1" d="M292.65,424.94H232.91l-10.82,30H197.53l57.24-145.7h18.94l55.58,145.7H303.48ZM240.2,405.38h45.38L263.1,343.14h-.21Z" transform="translate(-63.49 -53)"/>
    <path class="cls-1" d="M386.11,328.78V454.91H363.84V328.78H327.62V309.21h94.71v19.57Z" transform="translate(-63.49 -53)"/>
    <path class="cls-1" d="M511.83,437.64c11.24,0,22.07-3.75,31.85-10.82l12.07,16.44a75.94,75.94,0,0,1-44.33,14.15c-43.5,0-77.85-29.76-77.85-75.35,0-42.87,35.18-75.35,78.26-75.35a74.21,74.21,0,0,1,40.39,12.08L541.6,335.86c-8.74-5.62-18.94-9.37-29.77-9.37-31.63,0-54.53,23.52-54.53,55.57C457.3,416,479.37,437.64,511.83,437.64Z" transform="translate(-63.49 -53)"/>
    <path class="cls-1" d="M676.69,454.91V389.56H603.21v65.35H580.94V309.21h22.27V370h73.48V309.21H699v145.7Z" transform="translate(-63.49 -53)"/>
  </g>
  <g>
    <polygon class="cls-2" points="47.6 419.66 0 295.81 18.35 288.76 46.21 361.24 83.99 246.94 112.97 324.44 191.97 112.93 225.6 199.44 284.37 39.02 302.83 45.78 226.14 255.11 192.34 168.14 112.97 380.61 85.13 306.13 47.6 419.66"/>
    <polygon class="cls-2" points="260.99 40.22 309.13 0 319.9 61.81 260.99 40.22"/>
  </g>
  <g>
    <path class="cls-1" d="M90.47,153.15H86L72.43,119.09v34.06H66.06V111.47H76L88.27,143.2l12.56-31.73h9.83v41.68h-6.37V119.09Z" transform="translate(-63.49 -53)"/>
    <path class="cls-1" d="M120.84,117.54v-6.37H127v6.37Zm0,35.61V123H127v30.13Z" transform="translate(-63.49 -53)"/>
    <path class="cls-1" d="M151.63,129.63a9.69,9.69,0,0,0-6-2.33c-2.44,0-4.11,1.43-4.11,3.58s2.74,3.27,5.54,4.4c3.93,1.55,8.81,3.69,8.81,9.05,0,6.73-5.36,9.53-11.07,9.53A13.85,13.85,0,0,1,134,149l4.05-3.52c2.08,2.15,4.17,3.28,6.73,3.28s5-1.31,5-4.11c0-2.32-2.74-3.39-5.72-4.58-3.93-1.61-8.39-3.4-8.39-8.76,0-6.13,4.82-9,10-9a14.18,14.18,0,0,1,9.53,3.46Z" transform="translate(-63.49 -53)"/>
    <path class="cls-1" d="M178.9,129.63a9.69,9.69,0,0,0-6-2.33c-2.44,0-4.1,1.43-4.1,3.58s2.74,3.27,5.53,4.4c3.93,1.55,8.82,3.69,8.82,9.05,0,6.73-5.36,9.53-11.08,9.53A13.85,13.85,0,0,1,161.27,149l4-3.52c2.09,2.15,4.17,3.28,6.73,3.28s5-1.31,5-4.11c0-2.32-2.74-3.39-5.71-4.58-3.93-1.61-8.4-3.4-8.4-8.76,0-6.13,4.82-9,10-9a14.16,14.16,0,0,1,9.53,3.46Z" transform="translate(-63.49 -53)"/>
    <path class="cls-1" d="M219.62,138.08c0,8.81-6.6,15.78-15.48,15.78s-15.48-7-15.48-15.78,6.55-15.78,15.48-15.78S219.62,129.27,219.62,138.08Zm-15.48-10.24c-5.35,0-9.23,4.59-9.23,10.24s3.88,10.24,9.23,10.24,9.23-4.64,9.23-10.24S209.5,127.84,204.14,127.84Z" transform="translate(-63.49 -53)"/>
    <path class="cls-1" d="M247.67,153.15l-.18-4.77a11.55,11.55,0,0,1-9.76,5.48c-4,0-6.79-1.43-8.58-3.81-2.08-2.86-2.68-6.85-2.68-11.37V123h6.14v15.12c0,2.74.12,5.78,1.43,7.86.89,1.43,2.5,2.32,4.94,2.32,3.21,0,6.43-2.2,8.39-5.36V123h6.14v30.13Z" transform="translate(-63.49 -53)"/>
    <path class="cls-1" d="M269.17,153.15H263V108.49h6.14Z" transform="translate(-63.49 -53)"/>
    <path class="cls-1" d="M296.73,153.15l-.17-3a10.77,10.77,0,0,1-8.82,3.75c-5.59,0-10.71-2.86-10.71-9.29,0-7.56,6.78-9.94,13.33-9.94a31.39,31.39,0,0,1,5.9.65v-.89c0-4.41-2-7-6.85-7a20.74,20.74,0,0,0-9.47,2.68l-1.72-4.94a30.32,30.32,0,0,1,12.14-2.86c8.64,0,12,4.77,12,12.57v18.28Zm-.47-13.58a24.76,24.76,0,0,0-5.12-.54c-3.52,0-8.1,1-8.1,5.24,0,3.4,2.62,4.71,5.6,4.71s5.36-1.43,7.62-3.34Z" transform="translate(-63.49 -53)"/>
  </g>
  <rect class="cls-3" x="306.6" y="84.72" width="358.42" height="6.21"/>
  <rect class="cls-3" x="2.57" y="486.57" width="662.94" height="6.52"/>
  <g>
    <path class="cls-1" d="M89.06,520.64a16.35,16.35,0,0,0,9.35-3l3.55,4.61a23.05,23.05,0,0,1-13,4c-12.78,0-22.87-8.35-22.87-21.14,0-12,10.34-21.13,23-21.13a22.54,22.54,0,0,1,11.86,3.39l-3.12,4.78a16.84,16.84,0,0,0-8.74-2.62c-9.3,0-16,6.59-16,15.58C73,514.57,79.52,520.64,89.06,520.64Z" transform="translate(-63.49 -53)"/>
    <path class="cls-1" d="M137.13,510.72c0,8.64-6.79,15.47-15.9,15.47s-15.9-6.83-15.9-15.47,6.73-15.47,15.9-15.47S137.13,502.08,137.13,510.72Zm-15.9-10c-5.5,0-9.48,4.49-9.48,10s4,10,9.48,10,9.48-4.55,9.48-10S126.73,500.68,121.23,500.68Z" transform="translate(-63.49 -53)"/>
    <path class="cls-1" d="M185.08,525.49V510.66c0-2.69-.06-5.66-1.35-7.71-.91-1.4-2.56-2.27-5-2.27-2.81,0-5.87,1.81-7.95,4.49a42.43,42.43,0,0,1,.31,5v15.36h-6.3V510.66c0-2.69-.06-5.9-1.53-7.94a5.07,5.07,0,0,0-4.53-2c-2.93,0-6.05,2.33-7.95,4.78v20h-6.3V496h6l.12,4.26a12.62,12.62,0,0,1,9.6-5,9.92,9.92,0,0,1,8.5,4,6.49,6.49,0,0,1,.73,1.29,12.93,12.93,0,0,1,10.65-5.31c4,0,6.66,1.34,8.43,3.56,2.27,2.8,2.88,6.83,2.88,11.32v15.36Z" transform="translate(-63.49 -53)"/>
    <path class="cls-1" d="M241.47,525.49V510.66c0-2.69-.06-5.66-1.34-7.71-.92-1.4-2.57-2.27-5-2.27-2.81,0-5.87,1.81-8,4.49a40.36,40.36,0,0,1,.31,5v15.36h-6.3V510.66c0-2.69-.06-5.9-1.53-7.94a5.05,5.05,0,0,0-4.53-2c-2.93,0-6.05,2.33-8,4.78v20h-6.29V496h6l.12,4.26a12.65,12.65,0,0,1,9.6-5c3.49,0,6.61,1.28,8.5,4a7.1,7.1,0,0,1,.74,1.29,12.9,12.9,0,0,1,10.64-5.31c4,0,6.66,1.34,8.44,3.56,2.26,2.8,2.87,6.83,2.87,11.32v15.36Z" transform="translate(-63.49 -53)"/>
    <path class="cls-1" d="M270.53,521.11c4.1,0,7.09-1.46,9-4.67l4.4,2.74c-3.18,4.79-7.34,7-13.7,7-9.72,0-15.41-6.71-15.41-15.41a15.21,15.21,0,0,1,15.41-15.53c8.32,0,14.37,5.84,14.37,13.72a18.47,18.47,0,0,1-.3,3.27H261.17C261.6,517.08,265,521.11,270.53,521.11Zm-.18-20.84c-4.77,0-7.71,3.21-8.81,7.35h16.51A7.66,7.66,0,0,0,270.35,500.27Z" transform="translate(-63.49 -53)"/>
    <path class="cls-1" d="M298.11,500.56c1.84-3.09,4.59-5.31,7.83-5.31a13.41,13.41,0,0,1,3.55.41l-1.29,6.07a6,6,0,0,0-2.93-.64c-3,0-5.32,1.69-7,4.55v19.85h-6.3V496h6Z" transform="translate(-63.49 -53)"/>
    <path class="cls-1" d="M337.26,523.1a15.78,15.78,0,0,1-9.85,3.09c-8.93,0-15.84-6.19-15.84-15.47,0-8.64,7-15.47,16.08-15.47a16.1,16.1,0,0,1,9.3,2.8l-3.06,4.73a10.71,10.71,0,0,0-6.24-2.1,9.82,9.82,0,0,0-9.66,10,9.69,9.69,0,0,0,9.66,10,11.7,11.7,0,0,0,6.43-2.1Z" transform="translate(-63.49 -53)"/>
    <path class="cls-1" d="M343.62,490.58v-6.25h6.3v6.25Zm0,34.91V496h6.3v29.54Z" transform="translate(-63.49 -53)"/>
    <path class="cls-1" d="M378.23,525.49l-.18-3c-2.38,2.63-5.26,3.68-9.05,3.68-5.75,0-11-2.8-11-9.11,0-7.41,7-9.75,13.7-9.75a33.71,33.71,0,0,1,6.05.64v-.87c0-4.32-2.07-6.83-7-6.83a22.06,22.06,0,0,0-9.72,2.62l-1.78-4.84a32.44,32.44,0,0,1,12.48-2.8c8.87,0,12.35,4.67,12.35,12.32v17.92Zm-.49-13.31a26.7,26.7,0,0,0-5.26-.53c-3.6,0-8.31.94-8.31,5.14,0,3.33,2.69,4.61,5.75,4.61s5.5-1.4,7.82-3.27Z" transform="translate(-63.49 -53)"/>
    <path class="cls-1" d="M399.83,525.49h-6.3V481.7h6.3Z" transform="translate(-63.49 -53)"/>
    <path class="cls-1" d="M438.48,484.62c6.67,0,14.86,3.33,14.86,11.85,0,6.83-5,10.34-10.15,11.5l13.45,17.52h-8.19l-12.6-17.05h-3.73v17.05h-6.54V484.62ZM432.12,503H437c5.38,0,9.36-1.86,9.36-6.3,0-3.91-3.3-6.54-8.2-6.54h-6.05Z" transform="translate(-63.49 -53)"/>
    <path class="cls-1" d="M474.44,521.11c4.1,0,7.1-1.46,9-4.67l4.4,2.74c-3.18,4.79-7.34,7-13.7,7-9.72,0-15.41-6.71-15.41-15.41a15.21,15.21,0,0,1,15.41-15.53c8.32,0,14.37,5.84,14.37,13.72a17.54,17.54,0,0,1-.31,3.27H465.09C465.52,517.08,468.94,521.11,474.44,521.11Zm-.18-20.84c-4.77,0-7.7,3.21-8.81,7.35H482A7.67,7.67,0,0,0,474.26,500.27Z" transform="translate(-63.49 -53)"/>
    <path class="cls-1" d="M514.38,525.49l-.18-3c-2.39,2.63-5.26,3.68-9.05,3.68-5.75,0-11-2.8-11-9.11,0-7.41,7-9.75,13.7-9.75a33.71,33.71,0,0,1,6.05.64v-.87c0-4.32-2.08-6.83-7-6.83a22.06,22.06,0,0,0-9.72,2.62l-1.78-4.84a32.44,32.44,0,0,1,12.48-2.8c8.87,0,12.35,4.67,12.35,12.32v17.92Zm-.49-13.31a26.7,26.7,0,0,0-5.26-.53c-3.6,0-8.31.94-8.31,5.14,0,3.33,2.69,4.61,5.74,4.61s5.51-1.4,7.83-3.27Z" transform="translate(-63.49 -53)"/>
    <path class="cls-1" d="M536,525.49h-6.3V481.7H536Z" transform="translate(-63.49 -53)"/>
    <path class="cls-1" d="M561.73,525.49V484.62h26.11v5.49H568.27v11.56h19.57v5.49H568.27V520h19.57v5.49Z" transform="translate(-63.49 -53)"/>
    <path class="cls-1" d="M612.06,502.43a10.18,10.18,0,0,0-6.12-2.28c-2.5,0-4.22,1.4-4.22,3.5s2.82,3.22,5.69,4.32c4,1.52,9.05,3.62,9.05,8.88,0,6.6-5.5,9.34-11.37,9.34A14.48,14.48,0,0,1,594,521.46l4.15-3.44c2.14,2.1,4.29,3.21,6.92,3.21s5.13-1.29,5.13-4c0-2.28-2.81-3.33-5.87-4.5-4-1.57-8.62-3.32-8.62-8.58,0-6,5-8.87,10.27-8.87a15,15,0,0,1,9.79,3.38Z" transform="translate(-63.49 -53)"/>
    <path class="cls-1" d="M631.21,501.14V514c0,.76,0,1.46,0,2.33.19,2.81,1.17,4.44,3.92,4.44a7.94,7.94,0,0,0,3.48-.82l1.84,4.73a14,14,0,0,1-6.18,1.4c-4.46,0-7.27-2-8.5-5a15.72,15.72,0,0,1-.91-5.84V501.14h-4V496h4l.3-6.95h6V496h8.5v5.19Z" transform="translate(-63.49 -53)"/>
    <path class="cls-1" d="M664.72,525.49l-.18-3c-2.39,2.63-5.26,3.68-9,3.68-5.75,0-11-2.8-11-9.11,0-7.41,7-9.75,13.7-9.75a33.79,33.79,0,0,1,6.05.64v-.87c0-4.32-2.08-6.83-7-6.83a22.1,22.1,0,0,0-9.73,2.62l-1.77-4.84a32.35,32.35,0,0,1,12.48-2.8c8.86,0,12.35,4.67,12.35,12.32v17.92Zm-.49-13.31a26.7,26.7,0,0,0-5.26-.53c-3.61,0-8.32.94-8.32,5.14,0,3.33,2.7,4.61,5.75,4.61s5.51-1.4,7.83-3.27Z" transform="translate(-63.49 -53)"/>
    <path class="cls-1" d="M686.68,501.14V514c0,.76,0,1.46.06,2.33.18,2.81,1.16,4.44,3.91,4.44a8,8,0,0,0,3.49-.82l1.84,4.73a14,14,0,0,1-6.18,1.4c-4.47,0-7.28-2-8.5-5a15.71,15.71,0,0,1-.92-5.84V501.14h-4V496h4l.3-6.95h6V496h8.5v5.19Z" transform="translate(-63.49 -53)"/>
    <path class="cls-1" d="M714.93,521.11c4.1,0,7.1-1.46,9-4.67l4.4,2.74c-3.18,4.79-7.34,7-13.7,7-9.72,0-15.41-6.71-15.41-15.41a15.21,15.21,0,0,1,15.41-15.53C723,495.25,729,501.09,729,509a17.54,17.54,0,0,1-.31,3.27H705.58C706,517.08,709.43,521.11,714.93,521.11Zm-.18-20.84c-4.77,0-7.7,3.21-8.81,7.35h16.52A7.67,7.67,0,0,0,714.75,500.27Z" transform="translate(-63.49 -53)"/>
  </g>
</svg>
