<svg xmlns="http://www.w3.org/2000/svg" viewBox="0 0 576 378">
  <defs>
    <style>
      .cls-1 {
        fill: #002856;
      }

      .cls-2 {
        fill: #fff;
      }
    </style>
  </defs>
  <title>SterlingCRE_logo-D_Print_Color</title>
  <g id="Solid_Logo_Color" data-name="Solid Logo Color">
    <circle class="cls-1" cx="288" cy="99.94" r="89.81"/>
    <path class="cls-2" d="M352.42,131.5H319.56V116.13H306.3V98.86H294.66V131.5H273.72V117H253.88v11h-3.54v-14.6h26.92V128h13.86V95.31h18.64v17.28H323V128h27.76L313.15,79l-5.63,6.54A3.29,3.29,0,0,1,305,86.67a3.23,3.23,0,0,1-2.48-1.28L291.3,70.74l-23.56,32.93a3.24,3.24,0,0,1-3,1.34,3.38,3.38,0,0,1-2.09-1.12L253.4,93.77l-29.47,36.36a1.77,1.77,0,0,1-2.49.26h0a1.77,1.77,0,0,1-.26-2.49l30.36-37.46a2.32,2.32,0,0,1,3.52-.1l10,11,24.3-34a2.35,2.35,0,0,1,1.85-1h0a2.3,2.3,0,0,1,1.84.92l12,15.67,6.36-7.4a2.31,2.31,0,0,1,1.82-.8,2.34,2.34,0,0,1,1.78.9l39.63,51.57a2.65,2.65,0,0,1,.21,2.92A2.79,2.79,0,0,1,352.42,131.5Z"/>
    <g>
      <g>
        <path class="cls-1" d="M25.19,332.21h3.35l12.22,35.05H36.6l-2.65-8H18.53l-3,8H11.67ZM19.78,355.9H32.85l-6.11-18.48h0Z"/>
        <path class="cls-1" d="M91.79,332.21h9.11c8.87,0,18.63,4.71,18.63,17.38,0,13-9.71,17.67-19.12,17.67H91.79Zm5.76,31.65c10.82,0,18-3.26,18-13.82,0-9.46-5.76-14.42-15.63-14.42H95.5v28.24Z"/>
        <path class="cls-1" d="M182.78,367.26h-3.45l-12.17-35.05h4.26l9.71,29.44h.05l11.12-29.44h3.95Z"/>
        <path class="cls-1" d="M246.78,367.26V332.21h3.71v35.05Z"/>
        <path class="cls-1" d="M315.84,335c-4.3,0-7.06,2.05-7.06,5.45,0,3.91,4.66,5.11,9.26,6.82s9.12,3.9,9.12,9.76c0,7.86-6.86,10.82-11.87,10.82a16.19,16.19,0,0,1-12.32-5l2.81-2.51c3.45,3.51,6.11,4.06,9.56,4.06,4,0,7.86-2.1,7.86-6.81,0-4.21-4-5.76-8.26-7.36-4.81-1.8-10-3.6-10-9.31,0-6.41,4.75-9.37,10.26-9.37A16.61,16.61,0,0,1,325.66,335l-2.46,2.7A11.4,11.4,0,0,0,315.84,335Z"/>
        <path class="cls-1" d="M396.52,367.87a18.13,18.13,0,1,1,17.87-18.13A17.86,17.86,0,0,1,396.52,367.87Zm0-32.85c-8,0-13.92,6.46-13.92,14.72s5.91,14.72,13.92,14.72,13.92-6.46,13.92-14.72S404.53,335,396.52,335Z"/>
        <path class="cls-1" d="M471.39,367.26h-3.71V332.21h10.07c5.25,0,11.61,2.76,11.61,9.87,0,5.15-3.3,8.86-9.11,9.81,3.81,5.21,9.46,12.82,11.37,15.37H487L476,352h-4.6Zm0-18.67h5.1c5.46,0,8.92-1.86,8.92-6.41,0-4-3.21-6.56-7.91-6.56h-6.11Z"/>
        <path class="cls-1" d="M553,335c-4.31,0-7.07,2.05-7.07,5.45,0,3.91,4.66,5.11,9.27,6.82s9.11,3.9,9.11,9.76c0,7.86-6.86,10.82-11.87,10.82a16.17,16.17,0,0,1-12.31-5l2.8-2.51c3.45,3.51,6.11,4.06,9.56,4.06,4,0,7.86-2.1,7.86-6.81,0-4.21-4-5.76-8.26-7.36-4.8-1.8-10-3.6-10-9.31,0-6.41,4.76-9.37,10.26-9.37A16.59,16.59,0,0,1,562.78,335l-2.46,2.7A11.39,11.39,0,0,0,553,335Z"/>
      </g>
      <rect class="cls-1" x="11.67" y="313.26" width="294.41" height="1.37"/>
      <rect class="cls-1" x="373.11" y="313.26" width="191.17" height="1.37"/>
      <g>
        <path class="cls-1" d="M38.42,227.78c-9,0-14.68,4.26-14.68,11.34,0,8.12,9.68,10.62,19.26,14.16s18.94,8.12,18.94,20.3c0,16.34-14.26,22.48-24.67,22.48s-18.11-2.92-25.6-10.31l5.83-5.2c7.18,7.29,12.7,8.43,19.88,8.43,8.32,0,16.34-4.37,16.34-14.16,0-8.74-8.33-12-17.18-15.3-10-3.74-20.71-7.49-20.71-19.36,0-13.32,9.89-19.46,21.34-19.46a34.59,34.59,0,0,1,21.65,7l-5.1,5.62C50.6,230.17,44.14,227.78,38.42,227.78Z"/>
        <path class="cls-1" d="M87.56,250.47v28c0,9.16,3.12,10.82,7.8,10.82a18.91,18.91,0,0,0,6.25-1.35l1.77,5.62a17.12,17.12,0,0,1-8.12,2.19c-9.89,0-14.78-5.94-14.78-16.45V250.47H73.3V244h7.18v-12.7h7.08V244h14.78v6.45Z"/>
        <path class="cls-1" d="M116.91,271.18C117.54,281,124,290,135,290c6.77,0,12.49-1.87,16.14-8.74l5,3.23c-4.06,7.59-12.9,11.55-20.6,11.55-16.66,0-25.71-12.08-25.71-27s11-26.33,24.87-26.33c13.11,0,22.59,11.13,22.59,23.73,0,1.66-.21,3.74-.31,4.68Zm17.8-22.38c-9.78,0-16.13,6.87-17.59,16.34h33.2C149.91,256.61,143.35,248.8,134.71,248.8Z"/>
        <path class="cls-1" d="M178.64,253.59c2.81-5.62,7.7-10.82,14.78-10.82a20.56,20.56,0,0,1,4.27.41l-.94,7.81a10.08,10.08,0,0,0-4.78-.94c-5.83,0-9.68,4.37-13.33,10.83v33.93h-7.08V244h7.08Z"/>
        <path class="cls-1" d="M214.87,294.81h-7.08V216.74h7.08Z"/>
        <path class="cls-1" d="M233.82,232.67v-9.78h7.08v9.78Zm0,62.14V244h7.08v50.79Z"/>
        <path class="cls-1" d="M266.92,244V253A20.07,20.07,0,0,1,285,242.77c14.47,0,19.16,9.26,19.16,24.56v27.48h-7.08V268.47c0-9.57-1.77-19.25-13.12-19.25-7.59,0-13.74,5.41-17.07,11.87v33.72h-7.08V244Z"/>
        <path class="cls-1" d="M367.17,291.89c0,17.91-12.08,25.82-25.61,25.82a41.38,41.38,0,0,1-22.27-7.18l2.91-5.94a33.17,33.17,0,0,0,19.26,6.66c9.57,0,18.63-4.68,18.63-17.17V287a20.47,20.47,0,0,1-16.34,7.81,25.85,25.85,0,0,1-26-25.82,26.29,26.29,0,0,1,26.12-26.22A24.39,24.39,0,0,1,360.09,249v-5h7.08Zm-7.08-34.66a21.37,21.37,0,0,0-16.13-8c-11,0-18.95,9.16-18.95,19.36s7.81,19.78,18.95,19.78c6.24,0,13.21-3.65,16.13-9.58Z"/>
        <path class="cls-1" d="M421,286.17a26.94,26.94,0,0,0,15.92-5.41l6,8.22a38,38,0,0,1-22.17,7.08c-21.76,0-38.93-14.89-38.93-37.68,0-21.44,17.59-37.68,39.14-37.68a37.09,37.09,0,0,1,20.19,6l-5.31,8.53A27.66,27.66,0,0,0,421,230.59c-15.82,0-27.27,11.76-27.27,27.79C393.72,275.34,404.75,286.17,421,286.17Z"/>
        <path class="cls-1" d="M477.52,222c11.34,0,25.29,5.93,25.29,21.13,0,12.18-8.53,18.42-17.28,20.5l22.9,31.23H494.48L473,264.42h-6.35v30.39H455.55V222Zm-10.83,32.68H475c9.16,0,15.93-3.33,15.93-11.24,0-7-5.62-11.66-13.95-11.66H466.69Z"/>
        <path class="cls-1" d="M519.89,294.81V222h44.44v9.78H531v20.61h33.3v9.79H531V285h33.3v9.78Z"/>
      </g>
    </g>
  </g>
</svg>
