<svg xmlns="http://www.w3.org/2000/svg" viewBox="0 0 576 378">
  <defs>
    <style>
      .cls-1 {
        fill: #285a37;
      }

      .cls-2 {
        fill: #fff;
      }
    </style>
  </defs>
  <title>SterlingCIG_logo-D_Print_Color</title>
  <g id="Solid_Logo_Color" data-name="Solid Logo Color">
    <circle class="cls-1" cx="288" cy="110.94" r="89.81"/>
    <path class="cls-2" d="M352.42,142.5H319.56V127.13H306.3V109.86H294.66V142.5H273.72V128H253.88v11h-3.54v-14.6h26.92V139h13.86V106.31h18.64v17.28H323V139h27.76L313.15,90l-5.63,6.54A3.29,3.29,0,0,1,305,97.67a3.23,3.23,0,0,1-2.48-1.28L291.3,81.74l-23.56,32.93a3.24,3.24,0,0,1-3,1.34,3.38,3.38,0,0,1-2.09-1.12l-9.24-10.12-29.47,36.36a1.77,1.77,0,0,1-2.49.26h0a1.77,1.77,0,0,1-.26-2.49l30.36-37.46a2.32,2.32,0,0,1,3.52-.1l10,11,24.3-34a2.35,2.35,0,0,1,1.85-1h0a2.3,2.3,0,0,1,1.84.92l12,15.67,6.36-7.4a2.31,2.31,0,0,1,1.82-.8,2.34,2.34,0,0,1,1.78.9l39.63,51.57a2.65,2.65,0,0,1,.21,2.92A2.79,2.79,0,0,1,352.42,142.5Z"/>
    <g>
      <path class="cls-1" d="M40.42,357.09a15.33,15.33,0,0,1-8.3,2.41c-9.11,0-16-6.18-16-15.32,0-8.81,7.2-15.33,16-15.33a14.5,14.5,0,0,1,7.41,2l-1.44,2.41a12.62,12.62,0,0,0-6-1.56c-7.24,0-12.62,5.16-12.62,12.45,0,7.58,5.08,12.45,12.66,12.45a12.12,12.12,0,0,0,6.6-1.95Z"/>
      <path class="cls-1" d="M62.05,329.36h2.83L75.21,359H71.7l-2.24-6.74h-13L53.87,359H50.61Zm-4.58,20h11l-5.16-15.62h0Z"/>
      <path class="cls-1" d="M96.38,329.36c4.7,0,10.16,2.32,10.16,8.68s-5.42,8.72-10.16,8.72H91V359H87.83V329.36ZM91,343.88h4.36c4.49,0,7.88-1.48,7.88-5.76,0-3.68-2.88-5.88-7-5.88H91Z"/>
      <path class="cls-1" d="M119.28,359V329.36h3.14V359Z"/>
      <path class="cls-1" d="M146,332.24V359h-3.13V332.24h-7.67v-2.88H153.7v2.88Z"/>
      <path class="cls-1" d="M172.54,329.36h2.84L185.71,359H182.2L180,352.26h-13L164.37,359h-3.26Zm-4.57,20H179l-5.16-15.62h-.05Z"/>
      <path class="cls-1" d="M198.32,359V329.36h3.14v26.76h13.21V359Z"/>
      <path class="cls-1" d="M244.64,359V329.36h3.13V359Z"/>
      <path class="cls-1" d="M284.52,359l-17.65-23.8V359h-3V329.36h2.33l17.7,23.84V329.36h3V359Z"/>
      <path class="cls-1" d="M311.87,359H309l-10.29-29.64h3.6l8.21,24.89h0l9.4-24.89h3.35Z"/>
      <path class="cls-1" d="M335.45,359V329.36h17.23v2.88h-14.1v10h14.1v2.88h-14.1v11h14.1V359Z"/>
      <path class="cls-1" d="M376,331.73c-3.64,0-6,1.73-6,4.61,0,3.31,3.93,4.32,7.83,5.76s7.71,3.3,7.71,8.26c0,6.65-5.8,9.14-10,9.14a13.63,13.63,0,0,1-10.41-4.19l2.37-2.11c2.92,3,5.16,3.43,8.08,3.43,3.39,0,6.65-1.78,6.65-5.76,0-3.56-3.38-4.87-7-6.23-4.07-1.52-8.43-3.05-8.43-7.87,0-5.42,4-7.92,8.68-7.92a14.1,14.1,0,0,1,8.81,2.83L382.23,334A9.63,9.63,0,0,0,376,331.73Z"/>
      <path class="cls-1" d="M408.1,332.24V359H405V332.24H397.3v-2.88h18.46v2.88Z"/>
      <path class="cls-1" d="M458.9,359h-3.13V331.9L444.85,359h-2.33l-10.8-27v27h-3.13V329.36H434L443.7,354l9.74-24.64h5.46Z"/>
      <path class="cls-1" d="M475,359V329.36h17.23v2.88h-14.1v10h14.1v2.88h-14.1v11h14.1V359Z"/>
      <path class="cls-1" d="M527.61,359,510,335.2V359h-3V329.36h2.33L527,353.2V329.36h3V359Z"/>
      <path class="cls-1" d="M553.6,332.24V359h-3.13V332.24h-7.66v-2.88h18.46v2.88Z"/>
    </g>
    <g>
      <rect class="cls-1" x="14.83" y="313.97" width="290.14" height="1.18"/>
      <rect class="cls-1" x="371.04" y="313.97" width="190.77" height="1.18"/>
      <g>
        <path class="cls-1" d="M42.29,227.45c-9.14,0-15,4.36-15,11.59,0,8.29,9.89,10.84,19.67,14.46s19.35,8.29,19.35,20.73c0,16.69-14.57,23-25.2,23s-18.5-3-26.15-10.52l6-5.32c7.34,7.44,13,8.61,20.31,8.61,8.5,0,16.69-4.46,16.69-14.46,0-8.93-8.5-12.22-17.54-15.63-10.21-3.82-21.16-7.65-21.16-19.77,0-13.61,10.1-19.88,21.8-19.88a35.33,35.33,0,0,1,22.11,7.12l-5.21,5.74C54.73,229.89,48.14,227.45,42.29,227.45Z"/>
        <path class="cls-1" d="M89.4,252.47v27.47c0,9,3.07,10.62,7.66,10.62a18.66,18.66,0,0,0,6.13-1.33l1.74,5.51a16.79,16.79,0,0,1-8,2.15c-9.7,0-14.5-5.82-14.5-16.14V252.47h-7v-6.33h7V233.68H89.4v12.46h14.51v6.33Z"/>
        <path class="cls-1" d="M118.2,272.79c.61,9.6,6.94,18.48,17.77,18.48,6.63,0,12.25-1.84,15.82-8.58l4.91,3.17c-4,7.45-12.67,11.33-20.22,11.33-16.34,0-25.22-11.84-25.22-26.44s10.82-25.84,24.4-25.84c12.87,0,22.16,10.93,22.16,23.28a44.23,44.23,0,0,1-.31,4.6Zm17.46-22c-9.6,0-15.83,6.74-17.26,16H151C150.57,258.49,144.14,250.83,135.66,250.83Z"/>
        <path class="cls-1" d="M178.75,255.53c2.76-5.51,7.56-10.62,14.5-10.62a19.82,19.82,0,0,1,4.19.41l-.92,7.66a9.87,9.87,0,0,0-4.7-.92c-5.72,0-9.49,4.29-13.07,10.62V296h-6.94V246.14h6.94Z"/>
        <path class="cls-1" d="M214.29,296h-6.95V219.38h6.95Z"/>
        <path class="cls-1" d="M232.87,235v-9.6h6.94V235Zm0,61V246.14h6.94V296Z"/>
        <path class="cls-1" d="M265.34,246.14v8.78a19.69,19.69,0,0,1,17.77-10c14.19,0,18.79,9.09,18.79,24.1v27H295V270.13c0-9.39-1.73-18.89-12.86-18.89-7.46,0-13.48,5.31-16.75,11.64V296H258.4V246.14Z"/>
        <path class="cls-1" d="M363.67,293.11c0,17.56-11.84,25.32-25.11,25.32a40.63,40.63,0,0,1-21.86-7l2.86-5.82a32.54,32.54,0,0,0,18.89,6.53c9.4,0,18.28-4.59,18.28-16.85v-6.94a20.08,20.08,0,0,1-16,7.66,25.37,25.37,0,0,1-25.53-25.33,25.8,25.8,0,0,1,25.63-25.73A24,24,0,0,1,356.73,251v-4.9h6.94Zm-6.94-34a21,21,0,0,0-15.83-7.86c-10.82,0-18.58,9-18.58,19s7.66,19.4,18.58,19.4c6.13,0,13-3.58,15.83-9.4Z"/>
        <g>
          <path class="cls-1" d="M417.29,287.85a28,28,0,0,0,16.56-5.63l6.27,8.55a39.48,39.48,0,0,1-23,7.36c-22.61,0-40.46-15.47-40.46-39.17,0-22.28,18.28-39.16,40.67-39.16a38.53,38.53,0,0,1,21,6.27L432.77,235a28.73,28.73,0,0,0-15.48-4.87C400.85,230.08,389,242.3,389,259,389,276.6,400.42,287.85,417.29,287.85Z"/>
          <path class="cls-1" d="M530.66,264.59V254.42h30.61v29c-7.46,9.52-18.93,14.72-31.48,14.72-23.15,0-40.68-15.8-40.68-39.17,0-22.28,18.29-39.16,40.68-39.16a39.24,39.24,0,0,1,29.86,13.74l-8.11,6.92c-5.31-6.06-13.1-10.38-21.75-10.38-16.44,0-28.34,12.22-28.34,28.88,0,17.64,11.57,28.89,28.34,28.89a28.92,28.92,0,0,0,19.91-7.79V264.59Z"/>
          <path class="cls-1" d="M458.62,297.85V219.64h12v78.21Z"/>
        </g>
      </g>
    </g>
  </g>
</svg>
