<svg xmlns="http://www.w3.org/2000/svg" viewBox="0 0 576 378">
  <defs>
    <style>
      .cls-1, .cls-3 {
        fill: #ed1c24;
      }

      .cls-2 {
        fill: #fff;
      }

      .cls-3 {
        font-size: 33.69px;
        font-family: SoleilLt, Soleil;
        letter-spacing: 0.1em;
      }

      .cls-4 {
        letter-spacing: 0.15em;
      }

      .cls-5 {
        letter-spacing: 0.13em;
      }

      .cls-6 {
        letter-spacing: 0.15em;
      }

      .cls-7 {
        letter-spacing: 0.15em;
      }

      .cls-8 {
        letter-spacing: 0.15em;
      }

      .cls-9 {
        letter-spacing: 0.13em;
      }
    </style>
  </defs>
  <title>SterlingCMG_logo-D_Print_Color</title>
  <g id="Solid_Logo_Color" data-name="Solid Logo Color">
    <circle class="cls-1" cx="288" cy="110.94" r="89.81"/>
    <path class="cls-2" d="M352.42,142.5H319.56V127.13H306.3V109.86H294.66V142.5H273.72V128H253.88v11h-3.54v-14.6h26.92V139h13.86V106.31h18.64v17.28H323V139h27.76L313.15,90l-5.63,6.54A3.29,3.29,0,0,1,305,97.67a3.23,3.23,0,0,1-2.48-1.28L291.3,81.74l-23.56,32.93a3.24,3.24,0,0,1-3,1.34,3.38,3.38,0,0,1-2.09-1.12l-9.24-10.12-29.47,36.36a1.77,1.77,0,0,1-2.49.26h0a1.77,1.77,0,0,1-.26-2.49l30.36-37.46a2.32,2.32,0,0,1,3.52-.1l10,11,24.3-34a2.35,2.35,0,0,1,1.85-1h0a2.3,2.3,0,0,1,1.84.92l12,15.67,6.36-7.4a2.31,2.31,0,0,1,1.82-.8,2.34,2.34,0,0,1,1.78.9l39.63,51.57a2.65,2.65,0,0,1,.21,2.92A2.79,2.79,0,0,1,352.42,142.5Z"/>
    <g>
      <rect class="cls-1" x="6.26" y="311.82" width="277.1" height="1.12"/>
      <rect class="cls-1" x="346.46" y="311.82" width="224.5" height="1.12"/>
      <g>
        <path class="cls-1" d="M390.72,286.67a25.31,25.31,0,0,0,14.94-5.08l5.66,7.71a35.59,35.59,0,0,1-20.79,6.64c-20.41,0-36.51-14-36.51-35.34,0-20.11,16.49-35.34,36.7-35.34a34.79,34.79,0,0,1,18.94,5.66l-5,8a25.91,25.91,0,0,0-14-4.39c-14.84,0-25.57,11-25.57,26.06C365.15,276.51,375.49,286.67,390.72,286.67Z"/>
        <path class="cls-1" d="M462.1,294.77h-7.32l-22.26-55.84v55.84H422.07V226.43h16.21l20.21,52,20.6-52h16.1v68.34H484.75V238.93Z"/>
        <path class="cls-1" d="M541.83,265.68V256.5h27.62v26.16c-6.73,8.59-17.08,13.28-28.4,13.28-20.9,0-36.71-14.25-36.71-35.34,0-20.11,16.5-35.34,36.71-35.34A35.43,35.43,0,0,1,568,237.66l-7.32,6.25a26.41,26.41,0,0,0-19.62-9.37c-14.84,0-25.58,11-25.58,26.06,0,15.91,10.44,26.07,25.58,26.07a26.1,26.1,0,0,0,18-7v-14Z"/>
        <path class="cls-1" d="M31.45,231.81c-8.39,0-13.75,4-13.75,10.64,0,7.6,9.07,9.94,18,13.26s17.75,7.61,17.75,19c0,15.31-13.36,21.06-23.11,21.06s-17-2.73-24-9.65l5.46-4.88c6.73,6.83,11.89,7.9,18.62,7.9,7.8,0,15.32-4.1,15.32-13.26,0-8.2-7.81-11.22-16.1-14.34-9.36-3.51-19.41-7-19.41-18.14,0-12.48,9.27-18.24,20-18.24a32.37,32.37,0,0,1,20.28,6.54L45.79,237C42.86,234.06,36.81,231.81,31.45,231.81Z"/>
        <path class="cls-1" d="M77.48,253.08v26.23c0,8.58,2.92,10.14,7.31,10.14a17.57,17.57,0,0,0,5.85-1.27l1.66,5.27a16,16,0,0,1-7.6,2.05c-9.27,0-13.85-5.56-13.85-15.41v-27H64.12V247h6.73v-11.9h6.63V247H91.33v6.05Z"/>
        <path class="cls-1" d="M105,272.48c.58,9.17,6.63,17.66,17,17.66,6.34,0,11.7-1.76,15.11-8.2l4.68,3c-3.8,7.12-12.09,10.82-19.3,10.82-15.61,0-24.09-11.31-24.09-25.26s10.34-24.67,23.3-24.67c12.29,0,21.17,10.43,21.17,22.23,0,1.56-.2,3.52-.29,4.39Zm16.67-21c-9.16,0-15.11,6.44-16.48,15.32h31.11C135.89,258.83,129.75,251.51,121.65,251.51Z"/>
        <path class="cls-1" d="M162.81,256c2.63-5.27,7.21-10.14,13.85-10.14a19.41,19.41,0,0,1,4,.39l-.88,7.31a9.55,9.55,0,0,0-4.49-.87c-5.46,0-9.07,4.09-12.48,10.14v31.79h-6.63V247h6.63Z"/>
        <path class="cls-1" d="M196.75,294.62h-6.64V221.48h6.64Z"/>
        <path class="cls-1" d="M214.49,236.4v-9.17h6.64v9.17Zm0,58.22V247h6.64v47.59Z"/>
        <path class="cls-1" d="M245.51,247v8.39a18.8,18.8,0,0,1,17-9.56c13.55,0,17.94,8.68,17.94,23v25.75h-6.63V270c0-9-1.66-18-12.29-18-7.12,0-12.87,5.07-16,11.11v31.6h-6.64V247Z"/>
        <path class="cls-1" d="M339.42,291.89c0,16.77-11.31,24.19-24,24.19a38.73,38.73,0,0,1-20.87-6.73l2.73-5.56a31.14,31.14,0,0,0,18,6.24c9,0,17.46-4.39,17.46-16.09v-6.63a19.17,19.17,0,0,1-15.31,7.31,24.21,24.21,0,0,1-24.38-24.18,24.63,24.63,0,0,1,24.48-24.58,22.88,22.88,0,0,1,15.21,5.85V247h6.63Zm-6.63-32.48a20,20,0,0,0-15.12-7.5,17.89,17.89,0,0,0-17.74,18.14c0,9.65,7.31,18.52,17.74,18.52,5.86,0,12.39-3.41,15.12-9Z"/>
      </g>
      <text class="cls-3" transform="translate(4.89 357.4)">C<tspan class="cls-4" x="26.18" y="0">OMME</tspan><tspan class="cls-5" x="156.24" y="0">R</tspan><tspan class="cls-6" x="181.07" y="0">C</tspan><tspan class="cls-7" x="208.77" y="0">IA</tspan><tspan class="cls-4" x="249.1" y="0">L </tspan><tspan class="cls-8" x="284.14" y="0">MAN</tspan><tspan class="cls-9" x="376.5" y="0">A</tspan><tspan class="cls-6" x="401.4" y="0">GEMENT</tspan></text>
    </g>
  </g>
</svg>
