<svg xmlns="http://www.w3.org/2000/svg" viewBox="0 0 552.67 151.12">
  <defs>
    <style>
      .svg-logo {
        fill: #fff;
      }
    </style>
  </defs>
  <title>sterling-svg-logo</title>
  <g id="Solid_Logo_Color" data-name="Solid Logo Color">
    <g>
      <g>
        <path class="svg-logo" d="M25.19,123.9h3.35l12.22,35H36.6L34,151H18.53l-3,8H11.67Zm-5.41,23.68H32.85l-6.11-18.47h0Z" transform="translate(-11.67 -8.43)"/>
        <path class="svg-logo" d="M91.79,123.9h9.11c8.87,0,18.63,4.71,18.63,17.37,0,13-9.71,17.68-19.12,17.68H91.79Zm5.76,31.64c10.82,0,18-3.25,18-13.81,0-9.47-5.76-14.43-15.63-14.43H95.5v28.24Z" transform="translate(-11.67 -8.43)"/>
        <path class="svg-logo" d="M182.78,159h-3.45l-12.17-35h4.26l9.71,29.44h.05L192.3,123.9h3.95Z" transform="translate(-11.67 -8.43)"/>
        <path class="svg-logo" d="M246.78,159v-35h3.71v35Z" transform="translate(-11.67 -8.43)"/>
        <path class="svg-logo" d="M315.84,126.7c-4.3,0-7.06,2.06-7.06,5.46,0,3.91,4.66,5.11,9.26,6.81s9.12,3.91,9.12,9.77c0,7.86-6.86,10.81-11.87,10.81a16.16,16.16,0,0,1-12.32-5l2.81-2.5c3.45,3.51,6.11,4.06,9.56,4.06,4,0,7.86-2.11,7.86-6.81,0-4.21-4-5.76-8.26-7.37-4.81-1.8-10-3.6-10-9.31,0-6.41,4.75-9.36,10.26-9.36a16.67,16.67,0,0,1,10.42,3.35l-2.46,2.71A11.4,11.4,0,0,0,315.84,126.7Z" transform="translate(-11.67 -8.43)"/>
        <path class="svg-logo" d="M396.52,159.55a18.13,18.13,0,1,1,17.87-18.12A17.85,17.85,0,0,1,396.52,159.55Zm0-32.85c-8,0-13.92,6.46-13.92,14.73s5.91,14.72,13.92,14.72,13.92-6.47,13.92-14.72S404.53,126.7,396.52,126.7Z" transform="translate(-11.67 -8.43)"/>
        <path class="svg-logo" d="M471.39,159h-3.71v-35h10.07c5.25,0,11.61,2.75,11.61,9.86,0,5.16-3.3,8.87-9.11,9.82,3.81,5.2,9.46,12.81,11.37,15.37H487l-11-15.27h-4.6Zm0-18.68h5.1c5.46,0,8.92-1.85,8.92-6.41,0-4-3.21-6.56-7.91-6.56h-6.11Z" transform="translate(-11.67 -8.43)"/>
        <path class="svg-logo" d="M553,126.7c-4.31,0-7.07,2.06-7.07,5.46,0,3.91,4.66,5.11,9.27,6.81s9.11,3.91,9.11,9.77c0,7.86-6.86,10.81-11.87,10.81a16.14,16.14,0,0,1-12.31-5l2.8-2.5c3.45,3.51,6.11,4.06,9.56,4.06,4,0,7.86-2.11,7.86-6.81,0-4.21-4-5.76-8.26-7.37-4.8-1.8-10-3.6-10-9.31,0-6.41,4.76-9.36,10.26-9.36a16.65,16.65,0,0,1,10.42,3.35l-2.46,2.71A11.4,11.4,0,0,0,553,126.7Z" transform="translate(-11.67 -8.43)"/>
      </g>
      <rect class="svg-logo" y="96.52" width="294.41" height="1.37"/>
      <rect class="svg-logo" x="361.45" y="96.52" width="191.17" height="1.37"/>
      <g>
        <path class="svg-logo" d="M38.42,19.46c-9,0-14.68,4.27-14.68,11.35C23.74,38.93,33.42,41.42,43,45s18.94,8.12,18.94,20.3c0,16.34-14.26,22.48-24.67,22.48s-18.11-2.91-25.6-10.3l5.83-5.2c7.18,7.28,12.7,8.43,19.88,8.43,8.32,0,16.34-4.38,16.34-14.16,0-8.74-8.33-12-17.18-15.3-10-3.75-20.71-7.5-20.71-19.36,0-13.32,9.89-19.46,21.34-19.46a34.53,34.53,0,0,1,21.65,7L53.72,25C50.6,21.86,44.14,19.46,38.42,19.46Z" transform="translate(-11.67 -8.43)"/>
        <path class="svg-logo" d="M87.56,42.15v28c0,9.16,3.12,10.83,7.8,10.83a18.69,18.69,0,0,0,6.25-1.36l1.77,5.63a17.23,17.23,0,0,1-8.12,2.18c-9.89,0-14.78-5.93-14.78-16.44V42.15H73.3V35.7h7.18V23h7.08V35.7h14.78v6.45Z" transform="translate(-11.67 -8.43)"/>
        <path class="svg-logo" d="M116.91,62.87c.63,9.78,7.08,18.84,18.11,18.84,6.77,0,12.49-1.88,16.14-8.75l5,3.23c-4.06,7.6-12.9,11.55-20.6,11.55-16.66,0-25.71-12.07-25.71-27s11-26.33,24.87-26.33c13.11,0,22.59,11.14,22.59,23.73,0,1.67-.21,3.75-.31,4.69Zm17.8-22.38c-9.78,0-16.13,6.87-17.59,16.34h33.2C149.91,48.29,143.35,40.49,134.71,40.49Z" transform="translate(-11.67 -8.43)"/>
        <path class="svg-logo" d="M178.64,45.28c2.81-5.63,7.7-10.83,14.78-10.83a20.59,20.59,0,0,1,4.27.42l-.94,7.8a10.2,10.2,0,0,0-4.78-.93c-5.83,0-9.68,4.37-13.33,10.82V86.49h-7.08V35.7h7.08Z" transform="translate(-11.67 -8.43)"/>
        <path class="svg-logo" d="M214.87,86.49h-7.08V8.43h7.08Z" transform="translate(-11.67 -8.43)"/>
        <path class="svg-logo" d="M233.82,24.35V14.57h7.08v9.78Zm0,62.14V35.7h7.08V86.49Z" transform="translate(-11.67 -8.43)"/>
        <path class="svg-logo" d="M266.92,35.7v8.95A20.09,20.09,0,0,1,285,34.45c14.47,0,19.16,9.26,19.16,24.57V86.49h-7.08V60.16c0-9.58-1.77-19.26-13.12-19.26-7.59,0-13.74,5.42-17.07,11.87V86.49h-7.08V35.7Z" transform="translate(-11.67 -8.43)"/>
        <path class="svg-logo" d="M367.17,83.58c0,17.9-12.08,25.81-25.61,25.81a41.29,41.29,0,0,1-22.27-7.18l2.91-5.93a33.17,33.17,0,0,0,19.26,6.66c9.57,0,18.63-4.68,18.63-17.17V78.69a20.46,20.46,0,0,1-16.34,7.8,25.84,25.84,0,0,1-26-25.81,26.29,26.29,0,0,1,26.12-26.23,24.4,24.4,0,0,1,16.24,6.25v-5h7.08Zm-7.08-34.66a21.38,21.38,0,0,0-16.13-8c-11,0-18.95,9.16-18.95,19.36S332.82,80,344,80c6.24,0,13.21-3.64,16.13-9.57Z" transform="translate(-11.67 -8.43)"/>
        <path class="svg-logo" d="M421,77.86a27,27,0,0,0,15.92-5.42l6,8.23a38,38,0,0,1-22.17,7.07c-21.76,0-38.93-14.88-38.93-37.68,0-21.44,17.59-37.67,39.14-37.67a37.08,37.08,0,0,1,20.19,6L435.87,27A27.67,27.67,0,0,0,421,22.27c-15.82,0-27.27,11.76-27.27,27.79C393.72,67,404.75,77.86,421,77.86Z" transform="translate(-11.67 -8.43)"/>
        <path class="svg-logo" d="M477.52,13.63c11.34,0,25.29,5.94,25.29,21.13,0,12.18-8.53,18.43-17.28,20.51l22.9,31.22H494.48L473,56.1h-6.35V86.49H455.55V13.63ZM466.69,46.32H475C484.18,46.32,491,43,491,35.08c0-7-5.62-11.66-13.95-11.66H466.69Z" transform="translate(-11.67 -8.43)"/>
        <path class="svg-logo" d="M519.89,86.49V13.63h44.44v9.79H531V44h33.3v9.78H531v22.9h33.3v9.78Z" transform="translate(-11.67 -8.43)"/>
      </g>
    </g>
  </g>
</svg>
